<svg width="60" height="60" viewBox="0 0 60 60" fill="none" xmlns="http://www.w3.org/2000/svg">
<g clip-path="url(#clip0_2707_1060)">
<path d="M28.0005 4.51403C26.0018 5.16477 25.0257 6.74516 25.0257 9.30166C25.0257 11.1145 25.5602 12.5786 26.5829 13.6477C26.9315 13.9963 27.1639 14.3217 27.0942 14.3682C27.0477 14.3914 26.118 14.6006 25.0257 14.833C22.446 15.3443 20.7029 16.2275 19.7965 17.5057C19.1458 18.4586 19.0993 18.6678 19.0063 21.1778L18.9366 23.8273H16.566C14.2652 23.8273 14.1722 23.804 12.8939 23.0138C11.7086 22.2701 11.5924 22.1307 11.4995 21.1778C11.4298 20.62 11.1509 19.8298 10.8487 19.4115L10.3374 18.6678L11.0347 17.9473C12.5453 16.3669 12.8475 14.4612 11.8946 12.5089C10.1515 9.02277 5.17794 8.97629 3.41163 12.4624C2.48199 14.2752 2.99329 17.0409 4.48071 18.2262L5.08498 18.7142L4.48071 19.4115C4.15534 19.8066 3.82996 20.4573 3.76024 20.8757C3.66728 21.294 3.64404 24.571 3.69052 28.1268L3.76024 34.6343L4.48071 36.145C4.87581 36.9816 5.57304 38.074 6.03785 38.562C6.50267 39.0501 6.89777 39.4917 6.89777 39.5381C6.89777 39.7473 4.38775 39.5846 3.66728 39.329C3.2257 39.1663 2.64468 38.7479 2.38903 38.3993C1.92421 37.7718 1.90097 37.4 1.78476 29.9396C1.66856 22.8279 1.62207 22.1074 1.27346 21.875C0.971328 21.6891 0.738918 21.6891 0.460027 21.875C0.0881719 22.1074 0.04169 22.7814 -0.0280328 29.7769C-0.0977557 38.4458 -0.0512738 38.7944 1.57559 40.1889C2.76088 41.1882 3.96941 41.4904 6.87453 41.4904H9.22186V46.859C9.22186 50.1128 9.31483 54.9618 9.45427 55.2407C9.66344 55.6126 9.96557 55.6823 11.3833 55.6823C12.4059 55.6823 13.1961 55.5661 13.3588 55.4034C13.5679 55.1942 13.6376 51.0192 13.6376 47.0217V41.4904H14.544C15.0321 41.4904 15.5666 41.6298 15.7061 41.8157C15.8455 41.9784 16.659 44.4652 17.4956 47.3239C18.3323 50.1825 19.1225 55.2407 19.262 55.3801C19.6106 55.8217 39.7372 55.8217 40.0858 55.4034C40.2253 55.2407 41.0155 50.1825 41.8521 47.3239C42.6888 44.4652 43.5023 41.9784 43.6417 41.8157C43.7812 41.6298 44.3157 41.4904 44.8038 41.4904H45.7102V47.0217C45.7102 51.0192 45.7799 55.1942 45.989 55.4034C46.1517 55.5661 46.9419 55.6823 47.9645 55.6823C49.3822 55.6823 49.6844 55.6126 49.8935 55.2407C50.033 54.9618 50.1259 50.1128 50.1259 46.859V41.4904H52.4733C55.3784 41.4904 56.5869 41.1882 57.7722 40.1889C59.3991 38.7944 59.4456 38.4458 59.3758 29.7769C59.3061 22.7814 59.2596 22.1074 58.911 21.875C58.6089 21.6891 58.3765 21.6891 58.0976 21.875C57.7257 22.1074 57.6792 22.8279 57.563 29.9396C57.4468 37.4 57.4236 37.7718 56.9588 38.3993C56.7031 38.7479 56.1221 39.1663 55.6805 39.329C54.9601 39.5846 52.45 39.7473 52.45 39.5381C52.45 39.4917 52.8451 39.0501 53.3099 38.562C53.7748 38.074 54.472 36.9816 54.8671 36.145L55.5876 34.6343L55.6573 28.1268C55.7038 24.571 55.6805 21.294 55.5876 20.8757C55.5178 20.4573 55.1925 19.8066 54.8671 19.4115L54.2628 18.7142L54.8671 18.2262C56.3545 17.0409 56.8658 14.2752 55.9362 12.4624C54.1699 8.97629 49.1963 9.02277 47.4532 12.5089C46.5003 14.4612 46.8025 16.3669 48.3131 17.9473L49.0104 18.6678L48.4991 19.4115C48.1969 19.8298 47.918 20.62 47.8483 21.1778C47.7554 22.1307 47.6391 22.2701 46.4539 23.0138C45.1756 23.804 45.0826 23.8273 42.7818 23.8273H40.4112L40.3415 21.1778C40.2485 18.6678 40.202 18.4586 39.5513 17.5057C38.6449 16.2275 36.9018 15.3443 34.3221 14.833C33.2298 14.6006 32.3001 14.3914 32.2536 14.3682C32.1839 14.3217 32.4163 13.9963 32.7649 13.6477C33.7875 12.5786 34.3221 11.1145 34.3221 9.3249C34.3221 6.23385 32.8811 4.56051 30.0922 4.39782C29.2788 4.35134 28.3492 4.39782 28.0005 4.51403ZM31.8121 7.07053C32.3699 7.69803 32.4628 7.97692 32.4628 9.25518C32.4628 11.0447 31.7888 12.3462 30.5338 13.0202L29.6739 13.485L28.814 13.0202C26.4202 11.742 26.1413 7.34942 28.3724 6.3733C28.6281 6.25709 29.3718 6.21061 29.9993 6.2571C30.9521 6.32682 31.2775 6.46626 31.8121 7.07053ZM9.31483 12.23C10.6163 13.2526 10.9417 14.7865 10.1515 16.088C9.0127 17.9938 6.2935 18.017 5.17794 16.1577C4.41099 14.833 4.89905 12.7878 6.15406 12.1138C7.0837 11.6025 8.57112 11.649 9.31483 12.23ZM53.1473 12.0906C55.0065 13.0435 54.9833 16.088 53.1473 17.1803C50.7302 18.598 47.8018 15.8556 49.0801 13.3688C49.8703 11.8582 51.6134 11.3004 53.1473 12.0906ZM30.5338 18.9002L31.231 21.6426L30.4408 22.5722L29.6739 23.4786L28.9069 22.5722L28.1168 21.6426L28.814 18.9002C29.1858 17.3895 29.5809 16.1577 29.6739 16.1577C29.7669 16.1577 30.162 17.3895 30.5338 18.9002ZM26.8617 18.9931C26.4899 20.4341 26.1878 21.782 26.1878 21.9912C26.1878 22.5258 29.1626 25.6865 29.6739 25.6865C30.1852 25.6865 33.16 22.5258 33.16 21.9912C33.16 21.782 32.8579 20.4341 32.486 18.9699L31.8121 16.3204L32.9974 16.4831C34.9961 16.7155 36.6229 17.2965 37.5293 18.1332L38.3893 18.9002V21.3172V23.711L36.7159 23.8273C35.2052 23.9202 34.9496 24.0132 34.2756 24.6872C33.6713 25.3147 33.5087 25.64 33.4854 26.5464L33.4389 27.662H29.6739H25.9089L25.8624 26.5464C25.8391 25.64 25.6765 25.3147 25.0722 24.6872C24.3982 24.0132 24.1426 23.9202 22.6319 23.8273L20.9585 23.711V21.3405C20.9585 19.1558 21.005 18.9467 21.5396 18.3656C21.8649 18.017 22.3298 17.6219 22.5854 17.4825C23.3524 17.0641 25.7927 16.4134 26.6758 16.4134L27.5357 16.3902L26.8617 18.9931ZM8.59436 19.9228C9.1289 20.2017 9.66344 20.7827 9.68668 21.0848C9.68668 21.201 9.36131 21.2707 8.98946 21.2707C7.94361 21.2707 6.66536 22.5258 6.50267 23.7343C6.33999 25.059 6.89777 26.0119 8.40843 26.988L9.68668 27.8015V30.2418C9.68668 34.216 10.2909 35.0526 13.4052 35.285C17.3562 35.5872 19.076 37.4697 20.8191 43.3264C21.4466 45.4181 21.5396 46.0921 21.5396 48.5091C21.5396 51.2051 21.5163 53.8462 21.0515 53.7765C20.6099 53.7068 20.3543 50.5079 19.1225 46.2548C18.3323 43.5588 17.5421 41.1418 17.3794 40.8396C16.8681 39.91 16.2174 39.6776 13.5214 39.5846C11.546 39.4917 10.7093 39.3522 9.80289 38.9571C8.29223 38.2831 6.82805 36.8422 6.15406 35.3548C5.64276 34.216 5.61952 33.8906 5.54979 27.5923L5.48007 21.0383L6.1773 20.3411C6.89777 19.5974 7.73444 19.458 8.59436 19.9228ZM53.1705 20.3411L53.8677 21.0383L53.798 27.5923C53.7283 33.8906 53.705 34.216 53.1937 35.3548C52.5197 36.8422 51.0556 38.2831 49.5449 38.9571C48.6385 39.3522 47.8018 39.4917 45.8264 39.5846C43.1304 39.6776 42.4797 39.91 41.9684 40.8396C41.8057 41.1418 41.0155 43.5588 40.2253 46.2548C38.9935 50.5079 38.7379 53.7068 38.2963 53.7765C37.8315 53.8462 37.8082 51.2051 37.8082 48.5091C37.8082 46.0921 37.9012 45.4181 38.5287 43.3264C40.2718 37.4697 41.9916 35.5872 45.9426 35.285C49.0568 35.0526 49.6611 34.216 49.6611 30.2418V27.8015L50.9394 26.988C52.45 26.0119 53.0078 25.059 52.8451 23.7343C52.6824 22.5258 51.4042 21.2707 50.3583 21.2707C49.6146 21.2707 49.5217 21.1313 49.9632 20.5503C50.8232 19.458 52.1944 19.365 53.1705 20.3411ZM11.6622 24.4083L13.6376 25.6865H18.588C22.1206 25.6865 23.608 25.7563 23.8172 25.9654C24.2588 26.407 24.1426 27.0113 23.5848 27.4064C23.1432 27.7085 22.2136 27.7782 18.0999 27.7782H13.1031L10.8255 26.314C8.45491 24.8499 7.94361 24.1759 8.52464 23.4786C9.0127 22.8976 9.57048 23.0835 11.6622 24.4083ZM50.8232 23.4786C51.4042 24.1759 50.8929 24.8499 48.5223 26.314L46.2447 27.7782H41.2479C37.1342 27.7782 36.2046 27.7085 35.763 27.4064C35.2052 27.0113 35.089 26.407 35.5306 25.9654C35.7398 25.7563 37.2504 25.6865 40.8063 25.6633H45.8264L47.6856 24.4083C49.6379 23.1068 50.3351 22.8976 50.8232 23.4786ZM14.056 29.591L15.7293 29.7072V30.8228C15.7293 32.287 16.0082 32.4264 19.076 32.4264H21.5396V35.959L21.5163 39.5149L20.8888 38.2366C20.5402 37.5394 19.6803 36.3774 18.9831 35.6569C17.5189 34.1695 16.3104 33.6582 13.7538 33.449C12.6848 33.356 12.034 33.1701 11.8481 32.9377C11.6622 32.7285 11.546 31.8686 11.546 30.846C11.546 29.2889 11.5924 29.1494 11.9643 29.2889C12.1735 29.3818 13.1263 29.5213 14.056 29.591ZM47.8018 30.8693C47.8018 31.8919 47.6856 32.7285 47.5229 32.9377C47.3138 33.1701 46.663 33.356 45.5939 33.449C43.0374 33.6582 41.8289 34.1695 40.3647 35.6569C39.6675 36.3774 38.8076 37.5394 38.459 38.2366L37.8082 39.4917V35.959V32.4264H40.2718C43.3628 32.4264 43.6185 32.3102 43.6185 30.7995V29.6375L44.9664 29.6143C45.6869 29.591 46.5468 29.498 46.8722 29.4051C47.1976 29.3121 47.5229 29.2192 47.6392 29.1959C47.7321 29.1727 47.8018 29.9396 47.8018 30.8693ZM41.7592 30.1023C41.7592 30.5671 41.5965 30.5671 29.6739 30.5671C17.7513 30.5671 17.5886 30.5671 17.5886 30.1023C17.5886 29.6375 17.7513 29.6375 29.6739 29.6375C41.5965 29.6375 41.7592 29.6375 41.7592 30.1023ZM35.949 41.839V53.823H29.6739H23.3988V41.839V32.4264H29.6739H35.949V41.839ZM11.7784 46.371C11.7784 50.5543 11.7319 53.823 11.4298 53.823C11.1276 53.823 11.0811 50.5543 11.0811 46.371C11.0811 42.1876 11.1276 41.4904 11.4298 41.4904C11.7319 41.4904 11.7784 42.1876 11.7784 46.371ZM48.2667 46.371C48.2667 50.5543 48.2202 53.823 47.918 53.823C47.6159 53.823 47.5694 50.5543 47.5694 46.371C47.5694 42.1876 47.6159 41.4904 47.918 41.4904C48.2202 41.4904 48.2667 42.1876 48.2667 46.371Z" fill="url(#paint0_linear_2707_1060)"/>
</g>
<defs>
<linearGradient id="paint0_linear_2707_1060" x1="-4.60965" y1="58.5114" x2="46.4036" y2="68.0249" gradientUnits="userSpaceOnUse">
<stop stop-color="#723700"/>
<stop offset="0.552083" stop-color="#DB6900"/>
<stop offset="1" stop-color="#FF9A03"/>
</linearGradient>
<clipPath id="clip0_2707_1060">
<rect width="60" height="60" fill="white"/>
</clipPath>
</defs>
</svg>
